<svg version="1.2" baseProfile="tiny-ps" xmlns="http://www.w3.org/2000/svg" viewBox="0 0 1080 1080" width="1080" height="1080">
	<title>TIDE logo</title>
	<style>
		tspan { white-space:pre }
		.shp0 { opacity: 0.988;fill: #4682c9 } 
	</style>
	<path id="Path 0" class="shp0" d="M525.76 118.29C522.74 118.39 517.79 118.81 514.76 119.22C511.74 119.63 506.29 120.33 502.66 120.77C499.03 121.22 491.61 122.38 486.16 123.35C480.72 124.32 473.13 125.83 469.29 126.7C465.46 127.57 458.86 129.26 454.63 130.44C450.39 131.63 442.63 134.02 437.39 135.75C432.15 137.48 425.55 139.79 422.72 140.88C419.9 141.98 412.97 144.87 407.32 147.3C401.67 149.74 391.61 154.56 384.95 158.01C378.3 161.46 371.47 165.13 369.79 166.17C368.1 167.2 363.48 170.09 359.52 172.58C355.56 175.07 348.85 179.6 344.62 182.63C340.38 185.67 334.82 189.73 332.25 191.67C329.68 193.6 323.58 198.63 318.68 202.85C313.79 207.06 304.49 215.81 298.03 222.28C291.56 228.76 282.16 239.05 277.13 245.17C272.09 251.28 266.12 258.87 263.86 262.03C261.59 265.2 257.94 270.43 255.75 273.66C253.55 276.88 249.6 283.15 246.97 287.59C244.34 292.03 241.24 297.31 240.1 299.33C238.95 301.34 235.96 307.12 233.45 312.16C230.94 317.2 227.33 324.79 225.44 329.03C223.55 333.26 221.51 338.05 220.91 339.66C220.31 341.28 218.33 346.72 216.53 351.76C214.72 356.81 212.46 363.57 211.51 366.8C210.56 370.03 209.06 375.31 208.18 378.53C207.3 381.76 205.95 387.04 205.16 390.27C204.38 393.49 203.26 398.61 202.67 401.63C202.08 404.66 201.28 408.95 200.9 411.17C200.52 413.39 199.88 417.18 199.47 419.6C199.07 422.02 198.22 429.61 197.58 436.47C196.94 443.33 196.1 452.16 195.71 456.09C195.32 460.02 195 466.13 195 469.66C195 473.19 195.31 479.54 195.69 483.78C196.08 488.01 196.76 495.77 197.22 501.01C197.67 506.25 198.71 514.83 199.52 520.08C200.33 525.32 201.28 531.43 201.63 533.65C201.98 535.86 203.26 541.97 204.46 547.21C205.66 552.46 208.14 561.86 209.95 568.12C211.77 574.37 214.73 583.61 216.52 588.65C218.31 593.69 221.15 601.12 222.83 605.15C224.51 609.19 229.15 619.09 233.15 627.15C237.14 635.22 241.79 644.13 243.47 646.96C245.16 649.78 247.93 654.23 249.63 656.86C251.33 659.48 254 663.6 255.57 666.02C257.15 668.44 260.2 672.9 262.36 675.93C264.52 678.95 267.66 683.18 269.33 685.32C271.01 687.46 273.86 691 275.68 693.17C277.49 695.34 280.13 698.51 281.54 700.21C282.96 701.91 286.75 706.13 289.98 709.6C293.2 713.06 298.98 718.98 302.81 722.76C306.64 726.54 313.41 732.76 317.85 736.59C322.28 740.41 329.27 746.07 333.36 749.16C337.46 752.24 343.33 756.58 346.4 758.8C349.48 761.02 357.84 766.4 364.99 770.75C372.14 775.11 384.26 781.77 391.92 785.56C399.58 789.35 407.67 793.15 409.89 794.02C412.11 794.89 415.57 796.27 417.59 797.09C419.61 797.91 425.38 800.05 430.42 801.84C435.47 803.64 442.4 805.94 445.82 806.95C449.25 807.97 456.51 809.94 461.96 811.34C467.4 812.74 476.15 814.73 481.39 815.76C486.64 816.8 492.91 817.93 495.33 818.29C497.75 818.64 503.69 819.42 508.53 820.01C513.37 820.6 522.78 821.49 529.43 821.99C536.09 822.49 544.5 822.9 548.13 822.9C551.76 822.9 560.18 822.5 566.83 822.01C573.49 821.52 584.22 820.45 590.67 819.64C597.12 818.83 604.38 817.83 606.8 817.42C609.23 817.01 613.35 816.2 615.97 815.63C618.59 815.05 624.04 813.87 628.07 813C632.11 812.14 638.21 810.62 641.64 809.64C645.07 808.66 652.33 806.42 657.78 804.66C663.22 802.9 671.47 799.97 676.11 798.17C680.75 796.36 687.19 793.59 690.41 792L696.28 789.13C672.98 788.45 664.56 787.91 662.54 787.49C660.53 787.07 656.07 786.2 652.64 785.54C649.21 784.89 643.6 783.54 640.17 782.54C636.75 781.54 632.13 780.03 629.91 779.18C627.69 778.32 623.56 776.48 620.74 775.1C617.92 773.71 612.8 770.9 609.37 768.85C605.94 766.81 600.83 763.41 598 761.3C595.18 759.19 590.53 755.37 587.67 752.82C584.8 750.26 579.69 745.09 576.3 741.33C572.91 737.57 569.03 733.11 567.68 731.43C566.32 729.74 563.46 725.39 561.31 721.76C559.16 718.13 556.07 712.19 554.44 708.56C552.81 704.93 551.46 701.55 551.45 701.04C551.44 700.54 550.94 699.14 550.33 697.93C549.73 696.72 548.39 692.51 547.35 688.58C546.32 684.64 545.1 679.12 544.65 676.29C544.19 673.47 543.82 662.91 543.82 652.82C543.82 642.73 544.19 632.18 544.65 629.35C545.1 626.53 546.46 620.76 547.66 616.52C548.86 612.28 550.37 607.33 551.03 605.52C551.68 603.7 554.69 597.27 557.71 591.22C560.73 585.17 564.6 578.28 566.3 575.92C568.01 573.55 571.75 568.76 574.61 565.28C577.48 561.8 582.13 556.8 584.95 554.18C587.76 551.56 591.85 547.96 594.03 546.18C596.22 544.4 600.81 541.13 604.24 538.91C607.67 536.68 614.76 532.78 620.01 530.23C625.25 527.67 633.17 524.46 637.61 523.08C642.04 521.7 646.67 520.39 647.88 520.18C649.09 519.97 652.72 519.26 655.94 518.61C660.34 517.72 666.12 517.42 679.04 517.42C692.32 517.41 697.63 517.69 702.15 518.63C705.37 519.3 709.5 520.13 711.31 520.47C713.13 520.81 717.58 522.05 721.21 523.23C724.85 524.42 731.28 526.97 735.52 528.9C739.75 530.84 746.29 534.27 750.04 536.52C753.79 538.77 758.7 542.1 760.96 543.91C763.21 545.73 765.58 547.54 766.23 547.95C766.88 548.35 768.4 549.44 769.61 550.36C770.83 551.28 771.9 551.94 771.99 551.83C772.08 551.71 771.09 549.63 769.79 547.21C768.49 544.78 765.73 540.33 763.66 537.31C761.59 534.28 756.79 528.18 752.99 523.75C749.19 519.31 742.97 512.92 739.15 509.55C735.34 506.18 729.91 501.68 727.08 499.55C724.26 497.42 719.14 493.94 715.71 491.81C712.29 489.67 707.34 486.81 704.71 485.44C702.09 484.07 697.64 482 694.81 480.85C691.99 479.69 687.53 477.94 684.91 476.96C682.29 475.98 677.01 474.3 673.18 473.22C669.35 472.14 663.4 470.75 659.98 470.13C656.55 469.5 651.6 468.69 648.98 468.33C646.35 467.96 639.75 467.46 634.31 467.21C627.21 466.89 621.71 467.09 614.87 467.94C609.63 468.59 602.04 469.77 598 470.56C593.97 471.35 588.28 472.66 585.35 473.48C582.43 474.3 575.83 476.63 570.69 478.64C565.54 480.66 557.21 484.56 552.17 487.31C547.12 490.06 540.92 493.77 538.37 495.56C535.82 497.35 530.71 501.26 527 504.26C523.3 507.25 517.19 512.86 513.44 516.72C509.68 520.59 503.58 527.74 499.87 532.63C496.16 537.52 491.25 544.94 488.95 549.13C486.66 553.32 483.36 559.55 481.62 562.98C479.88 566.41 478.29 570.04 478.09 571.05C477.84 572.27 477.22 572.88 476.25 572.88C474.91 572.88 474.78 572.31 474.58 565.55C474.44 560.91 474.92 554.44 475.86 547.95C476.68 542.3 478.03 535.04 478.85 531.81C479.67 528.59 481.35 522.48 482.59 518.24C483.82 514.01 485.76 508.23 486.9 505.41C488.05 502.59 490.51 496.98 492.38 492.94C494.26 488.91 498.1 481.81 500.92 477.17C503.74 472.54 507.21 467.09 508.64 465.07C510.07 463.06 515.12 456.95 519.86 451.51C524.61 446.06 531.26 439.15 534.65 436.14C538.03 433.14 541.79 429.76 543 428.64C544.21 427.51 546.85 425.45 548.87 424.05C550.88 422.65 554.18 420.39 556.2 419.01C558.22 417.64 562.01 415.16 564.63 413.5C567.26 411.85 573.69 408.37 578.94 405.78C584.18 403.19 592.76 399.59 598 397.78C603.25 395.97 609.19 393.98 611.21 393.38C613.22 392.77 617.18 391.77 620.01 391.16C622.83 390.54 627.29 389.68 629.91 389.24C632.53 388.8 637.64 388.08 641.27 387.65C644.9 387.22 654.31 386.86 662.18 386.84C670.04 386.82 679.12 387.18 682.34 387.64C685.57 388.1 691.02 388.97 694.45 389.58C697.87 390.19 702.66 391.19 705.08 391.82C707.5 392.44 713.61 394.26 718.65 395.87C723.69 397.48 729.96 399.63 732.58 400.65C735.2 401.67 741.8 404.83 747.25 407.68C752.7 410.53 759.96 414.68 763.39 416.91C766.81 419.13 772.75 423.44 776.59 426.49C780.42 429.53 788.61 437.15 794.8 443.41C800.98 449.68 807.09 456.32 808.36 458.16C809.64 460.01 812.09 463.48 813.81 465.86C815.53 468.25 818.34 472.35 820.05 474.97C821.77 477.6 824.82 482.97 826.83 486.92C829.06 491.29 830.59 493.58 830.74 492.79C830.88 492.07 830.58 489.99 830.08 488.18C829.58 486.36 828.37 482.4 827.38 479.37C826.39 476.35 824.42 470.74 823 466.91C821.57 463.08 817.96 454.82 814.97 448.57C811.99 442.32 806.99 432.98 803.88 427.81C800.77 422.65 794.82 413.74 790.66 408.01C786.5 402.29 781.12 395.46 778.71 392.83C776.3 390.21 774.34 387.82 774.36 387.52C774.37 387.21 768.86 381.82 762.1 375.53C755.35 369.24 746.19 361.34 741.75 357.99C737.31 354.63 732.03 350.71 730.02 349.28C728 347.85 722.55 344.39 717.91 341.6C713.28 338.81 705.19 334.36 699.95 331.71C694.7 329.06 687.28 325.72 683.44 324.27C679.61 322.83 671.69 320.04 665.84 318.08C659.99 316.12 650.92 313.51 645.67 312.29C640.43 311.06 632.18 309.39 627.34 308.57C622.5 307.76 614.25 306.75 609.01 306.35C603.76 305.94 595.84 305.41 591.4 305.16C586.97 304.92 582.84 304.74 582.24 304.76C581.63 304.78 574.54 305.44 566.47 306.24C558.4 307.03 549.82 308.04 547.4 308.49C544.98 308.93 541.18 309.63 538.97 310.04C536.75 310.46 530.97 311.8 526.13 313.02C521.29 314.25 514.86 316.04 511.83 316.99C508.8 317.95 503.69 319.69 500.46 320.86C497.24 322.03 492.95 323.66 490.93 324.48C488.91 325.3 483.8 327.63 479.56 329.67C475.33 331.7 468.89 334.97 465.26 336.93C461.63 338.9 455.81 342.29 452.32 344.48C448.83 346.67 443.88 349.85 441.32 351.55C438.76 353.25 434.68 356.12 432.26 357.94C429.84 359.76 427.36 361.27 426.76 361.3C426.15 361.32 425.41 361.08 425.1 360.77C424.8 360.45 426.31 356.9 428.46 352.86C430.61 348.83 433.83 343.45 435.62 340.9C437.4 338.36 441.13 333.24 443.91 329.53C446.69 325.83 452.3 319 456.37 314.36C460.45 309.72 466.42 303.42 469.65 300.37C472.88 297.31 478.73 292.03 482.66 288.63C486.58 285.24 491.53 281.11 493.66 279.47C495.79 277.83 500.5 274.49 504.13 272.06C507.76 269.62 514.53 265.38 519.16 262.63C523.8 259.88 531.23 255.82 535.67 253.61C540.1 251.4 546.37 248.46 549.6 247.07C552.83 245.68 559.59 243.06 564.63 241.24C569.68 239.42 579.25 236.47 585.9 234.69C592.56 232.91 602.95 230.66 609.01 229.68C615.06 228.71 625.29 227.51 631.74 227.02C639.18 226.46 649.52 226.3 659.98 226.59C669.05 226.84 678.79 227.4 681.61 227.83C684.43 228.26 688.89 228.9 691.51 229.27C694.13 229.63 699.08 230.42 702.51 231.03C705.94 231.65 713.2 233.33 718.65 234.78C724.09 236.22 731.68 238.51 735.52 239.87C739.35 241.23 745.78 243.66 749.82 245.28C753.85 246.9 760.12 249.6 763.75 251.28C767.38 252.96 773.65 256.18 777.69 258.43C781.72 260.68 789.15 265.25 794.19 268.58C799.23 271.91 804.88 275.74 806.74 277.08C808.6 278.42 811.4 280.5 812.97 281.7C814.54 282.89 818.3 286.01 821.32 288.64C824.35 291.26 829.59 296.06 832.96 299.3C836.34 302.54 842.94 309.53 847.63 314.84C852.32 320.14 858.18 327.24 860.65 330.6C863.11 333.97 867.92 340.85 871.32 345.9C874.72 350.94 879.13 358.1 881.13 361.81C883.13 365.52 884.86 368.49 884.98 368.41C885.11 368.33 884.64 366.45 883.94 364.23C883.25 362.01 882.1 358.55 881.4 356.53C880.7 354.51 878.73 349.07 877.02 344.43C875.32 339.79 872 331.71 869.66 326.46C867.32 321.22 862.8 311.98 859.63 305.93C856.46 299.88 852.27 292.29 850.31 289.06C848.35 285.83 844.68 280.06 842.16 276.22C839.64 272.39 836.38 267.61 834.93 265.59C833.47 263.57 831.46 260.77 830.45 259.36C829.45 257.94 827.4 255.28 825.89 253.43C824.39 251.58 821.31 247.78 819.06 244.99C816.81 242.2 811.5 236.13 807.25 231.49C803.01 226.85 795.45 219.21 790.45 214.52C785.45 209.82 778.71 203.71 775.49 200.93C772.26 198.15 767.67 194.4 765.28 192.6C762.89 190.79 759.26 188.09 757.21 186.6C755.16 185.11 749.79 181.31 745.27 178.17C740.75 175.02 736.13 171.94 735 171.33C733.87 170.71 729.98 168.43 726.35 166.26C722.72 164.09 714.14 159.48 707.28 156.01C700.42 152.55 693.82 149.27 692.61 148.74C691.4 148.2 685.63 145.85 679.78 143.51C673.93 141.17 664.69 137.74 659.24 135.9C653.8 134.06 643.4 131.01 636.14 129.12C628.88 127.24 619.31 125.06 614.87 124.28C610.44 123.5 606.64 122.73 606.44 122.58C606.24 122.42 600.46 121.58 593.6 120.71C586.75 119.84 577.51 118.85 573.07 118.52C568.63 118.19 557.41 117.96 548.13 118.01C538.86 118.06 528.79 118.19 525.76 118.29Z" />
	<path id="T.I.D.E. " fill="#4581c8" aria-label="T.I.D.E."  d="M328.82 895.08L363.74 895.08L363.74 870.6L266.9 870.6L266.9 895.08L301.82 895.08L301.82 993L328.82 993ZM374 979.14C374 987.78 381.02 994.8 389.84 994.8C398.48 994.8 405.68 987.78 405.68 979.14C405.68 970.32 398.48 963.3 389.84 963.3C381.02 963.3 374 970.32 374 979.14ZM452.84 993L452.84 870.6L425.84 870.6L425.84 993ZM473 979.14C473 987.78 480.02 994.8 488.84 994.8C497.48 994.8 504.68 987.78 504.68 979.14C504.68 970.32 497.48 963.3 488.84 963.3C480.02 963.3 473 970.32 473 979.14ZM551.48 968.16L551.48 895.62L559.58 895.62C580.46 895.62 594.5 911.46 594.5 931.8C594.5 952.14 580.28 968.16 559.58 968.16ZM524.84 870.6L524.84 993L561.2 993C595.94 993 622.04 966.36 622.04 931.8C622.04 897.24 595.76 870.6 561.2 870.6ZM637.7 979.14C637.7 987.78 644.72 994.8 653.54 994.8C662.18 994.8 669.38 987.78 669.38 979.14C669.38 970.32 662.18 963.3 653.54 963.3C644.72 963.3 637.7 970.32 637.7 979.14ZM760.46 968.52L716.54 968.52L716.54 943.86L758.66 943.86L758.66 919.38L716.54 919.38L716.54 895.08L760.46 895.08L760.46 870.6L689.54 870.6L689.54 993L760.46 993ZM780.62 979.14C780.62 987.78 787.64 994.8 796.46 994.8C805.1 994.8 812.3 987.78 812.3 979.14C812.3 970.32 805.1 963.3 796.46 963.3C787.64 963.3 780.62 970.32 780.62 979.14Z" />
</svg>